<svg width="40" height="40" viewBox="0 0 40 40" fill="none" xmlns="http://www.w3.org/2000/svg">
  <circle cx="20" cy="20" r="20" fill="url(#paint0_linear_0_10)"/>
  <mask id="mask0_0_10" style="mask-type:luminance" maskUnits="userSpaceOnUse" x="0" y="0" width="40" height="40">
    <circle cx="20" cy="20" r="20" fill="white"/>
  </mask>
  <g mask="url(#mask0_0_10)">
    <path d="M-18.3333 -18C-18.2823 -15.3766 -17.7397 -12.7854 -16.733 -10.3577C-14.7621 -5.64431 -11.5346 -2.85325 -8.3223 -0.401192C-3.69113 3.13351 2.04271 6.4418 4.86643 7.82587C7.53713 9.13485 10.1725 10.6571 12.8664 11.9105C15.2085 13.2413 17.4782 14.6927 19.6664 16.2588C26.3338 21.0348 31.1923 26.8916 32.4775 29.6412C34.0729 33.0546 35.0188 37.1171 34.9997 41.6894C34.971 48.5613 32.5636 53.7538 30.8664 56.9741C27.2942 63.7523 21.3025 72.3068 19.5443 74.7047C15.2395 80.5751 11.5913 87.0068 8.59979 94C7.56814 91.1687 6.64914 88.326 5.81098 85.3777C4.5521 80.9489 3.52763 75.9254 2.87769 72.5965C0.220356 58.9856 -10.5933 44.2752 -27 28.9082V-17.8684L-18.3333 -18Z" fill="#F98E73"/>
    <path opacity="0.878" d="M21.1519 -8.82384C21.8178 -8.34998 22.4531 -7.8343 23.054 -7.2799C24.3855 -6.05103 25.4524 -4.74103 25.9519 -3.82888C27.1084 -1.71674 27.3079 0.527578 27.0629 3.33628C26.8106 6.22874 25.8114 10.1307 25.5747 10.8679C23.0528 18.7259 23.1543 30.6207 29.3026 36.9485C29.8405 37.5021 31.7067 38.8201 33.1966 39.8547C35.7022 41.5941 38.0689 43.0996 40.4411 44.9405C43.0434 46.9599 44.6842 48.5774 45.8427 50.6593C46.7454 52.2814 47.7455 55.5167 48.1386 59.1994C48.2147 59.9119 48.2725 60.5449 48.394 61.247C48.8335 63.7853 49.6677 65.9492 50.3783 67.0026C51.3112 68.3853 53.8594 70.2774 57.6776 71.6212C59.3476 72.2089 62.9283 72.7893 65.5438 74.2503C67.8573 75.5423 69.7312 77.3621 71.2308 79.5428C42.0846 103.337 2.41666 101.369 -19.5078 79.5428C-44.9577 54.2068 -43.3575 5.43224 -19.5078 -9.27774C-7.89002 -16.4433 7.61443 -14.6407 21.6054 -9.27774" fill="#C4E2E6"/>
    <mask id="mask1_0_10" style="mask-type:luminance" maskUnits="userSpaceOnUse" x="-38" y="-14" width="110" height="111">
      <path d="M21.1519 -8.82384C21.8178 -8.34998 22.4531 -7.8343 23.054 -7.2799C24.3855 -6.05103 25.4524 -4.74103 25.9519 -3.82888C27.1084 -1.71674 27.3079 0.527578 27.0629 3.33628C26.8106 6.22874 25.8114 10.1307 25.5747 10.8679C23.0528 18.7259 23.1543 30.6207 29.3026 36.9485C29.8405 37.5021 31.7067 38.8201 33.1966 39.8547C35.7022 41.5941 38.0689 43.0996 40.4411 44.9405C43.0434 46.9599 44.6842 48.5774 45.8427 50.6593C46.7454 52.2814 47.7455 55.5167 48.1386 59.1994C48.2147 59.9119 48.2725 60.5449 48.394 61.247C48.8335 63.7853 49.6677 65.9492 50.3783 67.0026C51.3112 68.3853 53.8594 70.2774 57.6776 71.6212C59.3476 72.2089 62.9283 72.7893 65.5438 74.2503C67.8573 75.5423 69.7312 77.3621 71.2308 79.5428C42.0846 103.337 2.41666 101.369 -19.5078 79.5428C-44.9577 54.2068 -43.3575 5.43224 -19.5078 -9.27774C-7.89002 -16.4433 7.61443 -14.6407 21.6054 -9.27774" fill="white"/>
    </mask>
    <g mask="url(#mask1_0_10)">
      <path d="M8.54269 94.3515C7.50719 91.5055 6.58473 88.6483 5.74314 85.6842C4.47801 81.2281 3.44837 76.1734 2.79529 72.8241C0.124767 59.129 -10.7424 44.3275 -27.2308 28.8655V-3.17453C-25.0874 -5.62312 -22.6492 -7.71876 -19.922 -9.37911C-18.9874 -9.94767 -18.0216 -10.4642 -17.0289 -10.9263C-16.9911 -10.8318 -16.9525 -10.7374 -16.9131 -10.6432C-14.9324 -5.90062 -11.6888 -3.09229 -8.46065 -0.625065C-3.8065 2.93151 1.9558 6.26026 4.79363 7.65298C7.47758 8.96996 10.1259 10.5017 12.8333 11.7629C15.187 13.1018 17.4681 14.5622 19.667 16.138C21.1764 17.2226 22.6296 18.3818 24.021 19.6112C23.779 25.8722 25.2108 32.4817 29.3209 36.6571C29.8635 37.2083 31.7464 38.5209 33.2494 39.5514C33.8628 39.9717 34.4678 40.3783 35.0668 40.7793C35.0746 41.0924 35.0779 41.408 35.0766 41.7259C35.0477 48.6404 32.6284 53.865 30.9228 57.1053C27.3329 63.9253 21.3115 72.5328 19.5444 74.9456C15.2197 80.8504 11.5545 87.3195 8.54863 94.353L8.54269 94.3515Z" fill="#F8D9AF"/>
    </g>
  </g>
  <defs>
    <linearGradient id="paint0_linear_0_10" x1="2.66089" y1="-15.393" x2="-28.1252" y2="33.8349" gradientUnits="userSpaceOnUse">
      <stop stop-color="#6A5FDD"/>
      <stop offset="1" stop-color="#241D8C"/>
    </linearGradient>
  </defs>
</svg>
